<?xml version="1.0" encoding="UTF-8" standalone="no"?>
<!-- Created with Inkscape (http://www.inkscape.org/) -->

<svg
   xmlns:dc="http://purl.org/dc/elements/1.1/"
   xmlns:cc="http://creativecommons.org/ns#"
   xmlns:rdf="http://www.w3.org/1999/02/22-rdf-syntax-ns#"
   xmlns:svg="http://www.w3.org/2000/svg"
   xmlns="http://www.w3.org/2000/svg"
   xmlns:sodipodi="http://sodipodi.sourceforge.net/DTD/sodipodi-0.dtd"
   xmlns:inkscape="http://www.inkscape.org/namespaces/inkscape"
   width="210mm"
   height="297mm"
   viewBox="0 0 744.09448819 1052.3622047"
   id="svg2"
   version="1.1"
   inkscape:version="0.91 r13725"
   sodipodi:docname="etiqueta_00.svg">
  <defs
     id="defs4" />
  <sodipodi:namedview
     id="base"
     pagecolor="#ffffff"
     bordercolor="#666666"
     borderopacity="1.0"
     inkscape:pageopacity="0.0"
     inkscape:pageshadow="2"
     inkscape:zoom="4.3759247"
     inkscape:cx="301.34005"
     inkscape:cy="316.61515"
     inkscape:document-units="px"
     inkscape:current-layer="text3355"
     showgrid="false"
     inkscape:window-width="1012"
     inkscape:window-height="657"
     inkscape:window-x="131"
     inkscape:window-y="225"
     inkscape:window-maximized="1" />
  <metadata
     id="metadata7">
    <rdf:RDF>
      <cc:Work
         rdf:about="">
        <dc:format>image/svg+xml</dc:format>
        <dc:type
           rdf:resource="http://purl.org/dc/dcmitype/StillImage" />
        <dc:title></dc:title>
      </cc:Work>
    </rdf:RDF>
  </metadata>
  <g
     inkscape:label="Capa 1"
     inkscape:groupmode="layer"
     id="layer1">
    <g
       style="font-style:normal;font-weight:normal;font-size:40px;line-height:125%;font-family:sans-serif;letter-spacing:0px;word-spacing:0px;fill:#000000;fill-opacity:1;stroke:none;stroke-width:1px;stroke-linecap:butt;stroke-linejoin:miter;stroke-opacity:1"
       id="text3336"
       transform="matrix(2.3874164,0,0,4.0181458,-254.4771,-1508.5223)">
      <g
         transform="scale(1.277087,0.78303199)"
         style="font-style:normal;font-variant:normal;font-weight:bold;font-stretch:normal;font-size:7.60684109px;line-height:125%;font-family:Arial;-inkscape-font-specification:'Arial, Bold';text-align:start;letter-spacing:0px;word-spacing:0px;writing-mode:lr-tb;text-anchor:start;fill:#000000;fill-opacity:1;stroke:none;stroke-width:1px;stroke-linecap:butt;stroke-linejoin:miter;stroke-opacity:1"
         id="text3355">
        <path
           d="m 161.96105,711.53914 0,-0.96572 1.04372,0 0,0.96572 -1.04372,0 z m 0,4.47941 0,-3.94456 1.04372,0 0,3.94456 -1.04372,0 z"
           style=""
           id="path3360" />
        <path
           d="m 164.08191,716.01855 0,-5.44513 2.31399,0 q 0.87286,0 1.26657,0.14857 0.39743,0.14486 0.63514,0.52 0.23771,0.37515 0.23771,0.858 0,0.61286 -0.36028,1.014 -0.36028,0.39743 -1.07714,0.50143 0.35657,0.208 0.58686,0.45685 0.23399,0.24886 0.62771,0.884 l 0.66485,1.06228 -1.31485,0 -0.79486,-1.18485 q -0.42342,-0.63514 -0.57942,-0.79857 -0.156,-0.16714 -0.33057,-0.22657 -0.17457,-0.0631 -0.55343,-0.0631 l -0.22286,0 0,2.27313 -1.09942,0 z m 1.09942,-3.14227 0.81343,0 q 0.79114,0 0.988,-0.0669 0.19685,-0.0669 0.30828,-0.23029 0.11143,-0.16342 0.11143,-0.40857 0,-0.27485 -0.14857,-0.442 -0.14486,-0.17085 -0.41229,-0.21542 -0.13371,-0.0186 -0.80228,-0.0186 l -0.858,0 0,1.38172 z"
           style=""
           id="path3362" />
        <path
           d="m 169.35247,713.32942 q 0,-0.832 0.24885,-1.39657 0.18572,-0.416 0.50514,-0.74657 0.32315,-0.33057 0.70572,-0.49029 0.50885,-0.21542 1.17371,-0.21542 1.20343,0 1.924,0.74657 0.72428,0.74657 0.72428,2.07628 0,1.31857 -0.71686,2.06514 -0.71685,0.74285 -1.91656,0.74285 -1.21457,0 -1.93143,-0.73914 -0.71685,-0.74286 -0.71685,-2.04285 z m 1.13285,-0.0371 q 0,0.92486 0.42714,1.404 0.42714,0.47543 1.08457,0.47543 0.65743,0 1.07714,-0.47171 0.42343,-0.47543 0.42343,-1.42257 0,-0.936 -0.41228,-1.39657 -0.40858,-0.46057 -1.08829,-0.46057 -0.67971,0 -1.09571,0.468 -0.416,0.46428 -0.416,1.40399 z"
           style=""
           id="path3364" />
        <path
           d="m 175.49217,710.57342 2.17656,0 q 0.64629,0 0.962,0.0557 0.31943,0.052 0.56829,0.22285 0.25257,0.17086 0.41971,0.45686 0.16714,0.28229 0.16714,0.63514 0,0.38257 -0.208,0.702 -0.20428,0.31943 -0.55714,0.47914 0.49772,0.14486 0.76514,0.494 0.26743,0.34914 0.26743,0.82086 0,0.37142 -0.17457,0.72428 -0.17086,0.34914 -0.47171,0.56086 -0.29715,0.208 -0.73543,0.25628 -0.27486,0.0297 -1.326,0.0371 l -1.85342,0 0,-5.44513 z m 1.09942,0.90629 0,1.25914 0.72057,0 q 0.64257,0 0.79857,-0.0186 0.28229,-0.0334 0.442,-0.19315 0.16343,-0.16342 0.16343,-0.42714 0,-0.25257 -0.14114,-0.40857 -0.13743,-0.15971 -0.41229,-0.19314 -0.16342,-0.0186 -0.93971,-0.0186 l -0.63143,0 z m 0,2.16542 0,1.456 1.01772,0 q 0.59428,0 0.75399,-0.0334 0.24515,-0.0446 0.39743,-0.21543 0.156,-0.17457 0.156,-0.46428 0,-0.24515 -0.11885,-0.416 -0.11886,-0.17086 -0.34543,-0.24886 -0.22286,-0.078 -0.97314,-0.078 l -0.88772,0 z"
           style=""
           id="path3366" />
        <path
           d="m 180.8593,714.56627 0,-1.04371 2.05028,0 0,1.04371 -2.05028,0 z"
           style=""
           id="path3368" />
        <path
           d="m 183.52615,716.01855 0,-5.44513 4.03742,0 0,0.92114 -2.93799,0 0,1.20714 2.73371,0 0,0.91743 -2.73371,0 0,1.482 3.04199,0 0,0.91742 -4.14142,0 z"
           style=""
           id="path3370" />
        <path
           d="m 193.51756,716.01855 -1.196,0 -0.47543,-1.23685 -2.17656,0 -0.44943,1.23685 -1.16628,0 2.12085,-5.44513 1.16257,0 2.18028,5.44513 z m -2.02428,-2.15428 -0.75029,-2.02056 -0.73542,2.02056 1.48571,0 z"
           style=""
           id="path3372" />
        <path
           d="m 197.02384,716.01855 -1.58971,-3.94456 1.09571,0 0.74285,2.01314 0.21543,0.67228 q 0.0854,-0.25628 0.10772,-0.33799 0.052,-0.16715 0.11142,-0.33429 l 0.75029,-2.01314 1.07342,0 -1.56742,3.94456 -0.93971,0 z"
           style=""
           id="path3374" />
        <path
           d="m 202.63611,716.01855 -1.04371,0 0,-2.83786 q -0.572,0.38589 -1.34828,0.5708 l 0,-0.68335 q 0.40857,-0.0964 0.88771,-0.36444 0.47914,-0.27065 0.65743,-0.62974 l 0.84685,0 0,3.94459 z"
           id="path3376"
           inkscape:connector-curvature="0" />
      </g>
    </g>
  </g>
</svg>
